# xmcd
#
# Track frame offsets:
#	150
#	5498
#	19739
#	45208
#	77350
#	100995
#	138121
#	166868
#	215467
#	265069
#
# Disc length: 3956 seconds
#
# Revision: 1
# Processed by: cddbd v1.5.2PL0 Copyright (c) Steve Scherf et al.
# Submitted via: audiograbber 1.83.01
#
DISCID=6c0f720a
DTITLE=Grateful Dead - 78-11-16 Uptown Theatre, Chicago IL
DYEAR=1900
DGENRE=
TTITLE0="Mickey's Hat"
TTITLE1=Me and My Uncle
TTITLE2=Big River
TTITLE3=They Love Each Other
TTITLE4=Brown Eyed Women
TTITLE5=Dancing In The Streets
TTITLE6=Deal
TTITLE7=Scarlet Begonias
TTITLE8=Fire On The Mountain
TTITLE9=Samson and Delilah
EXTD=
EXTT0=
EXTT1=
EXTT2=
EXTT3=
EXTT4=
EXTT5=
EXTT6=
EXTT7=
EXTT8=
EXTT9=
PLAYORDER=
